<svg width="20" height="20" viewBox="0 0 20 20" fill="none" xmlns="http://www.w3.org/2000/svg">
<path fill-rule="evenodd" clip-rule="evenodd" d="M7.87749 13.2062C4.03349 13.2062 0.750488 13.7872 0.750488 16.1152C0.750488 18.4422 4.01249 19.0452 7.87749 19.0452C11.7215 19.0452 15.0045 18.4632 15.0045 16.1362C15.0045 13.8092 11.7425 13.2062 7.87749 13.2062Z" stroke="#200E32" stroke-width="1.5" stroke-linecap="round" stroke-linejoin="round"/>
<path fill-rule="evenodd" clip-rule="evenodd" d="M7.87757 9.8859C10.4136 9.8859 12.4456 7.8529 12.4456 5.3179C12.4456 2.7819 10.4136 0.749901 7.87757 0.749901C5.34257 0.749901 3.30957 2.7819 3.30957 5.3179C3.30957 7.8529 5.34257 9.8859 7.87757 9.8859Z" stroke="#200E32" stroke-width="1.5" stroke-linecap="round" stroke-linejoin="round"/>
<path d="M17.2041 6.6691V10.6791" stroke="#200E32" stroke-width="1.5" stroke-linecap="round" stroke-linejoin="round"/>
<path d="M19.2502 8.674H15.1602" stroke="#200E32" stroke-width="1.5" stroke-linecap="round" stroke-linejoin="round"/>
</svg>
